<?xml version="1.0" encoding="UTF-8"?>
<svg viewBox="0 0 95.1158 153.122" xmlns="http://www.w3.org/2000/svg">
 <path d="m51.688 5.25c-5.4261-0.14093-11.774 12.818-11.562 24.375 0.04852 3.5205 1.1599 10.659 2.7812 19.625-10.224 10.581-22.094 21.44-22.094 35.688-0.1632 13.058 7.8164 29.695 26.75 29.531 2.906-0.01496 5.5208-0.38324 7.8438-1 1.7306 9.4918 2.8813 16.981 2.875 20.438 0.06104 13.64-17.86 14.99-18.719 7.1562 3.7766-0.1295 6.7812-3.137 6.7812-6.8438 0-3.79-3.138-6.875-7.0312-6.875-2.1415 0-4.0498 0.93799-5.3438 2.4062-0.02928 0.03322-0.06512 0.05999-0.09375 0.09375-0.29246 0.3043-0.5376 0.68045-0.78125 1.0938-0.79762 1.353-1.316 3.2925-1.3438 6.0625 0 11.425 28.875 18.774 28.875-3.75 0.04515-3.0252-1.2575-10.715-3.1562-20.406 20.603-7.4569 15.427-38.044-3.5312-38.188-1.4697 0.01485-2.8863 0.18571-4.25 0.53125-1.0793-5.1969-2.1214-10.241-3.0312-14.875 7.199-7.0715 13.484-16.225 13.344-33.094 0.0222-12.114-4.0139-21.828-8.3125-21.969zm1.2812 11.719c2.456-0.23718 4.4062 2.0435 4.4062 7.0625 0.1989 8.6201-5.84 16.148-13.031 23.719-0.68756-4.1466-1.1389-7.5072-1.1875-9.5 0.204-13.466 5.7192-20.886 9.8125-21.281zm-7.7188 44.688c0.87679 4.5151 1.8243 9.2714 2.7812 14.062-12.549 4.4645-18.57 21.954-0.78125 29.781-10.843-9.231-5.5055-20.158 2.3125-22.062 1.9656 9.817 3.8853 19.5 5.4375 27.875-2.1074 0.73322-4.5664 1.1683-7.4375 1.1875-7.1817 0-21.531-4.5732-21.531-21.875 0-14.494 10.046-20.384 19.219-28.969zm6.0938 21.469c0.31345-0.01868 0.65177-0.01133 0.96875 0 13.062 0 17.99 20.743 4.6875 27.375-1.655-8.3192-3.6616-17.86-5.6562-27.375z" fill="none" stroke="#000"/>
</svg>
